<svg width="127" height="16" viewBox="0 0 127 16" fill="none" xmlns="http://www.w3.org/2000/svg">
<g clip-path="url(#clip0_153977_154275)">
<path d="M6.45892 0C8.77094 0.0827885 10.9686 1.00801 12.6229 2.5951L10.5683 4.46208C9.39038 3.54844 7.95716 3.00799 6.45892 2.91249H6.27818C5.23182 2.91249 3.51959 3.29522 3.51959 4.65811C3.51959 5.71295 4.7562 6.03034 6.18306 6.2077L7.46723 6.33839C10.711 6.72112 13.1747 7.90665 13.1747 11.1552C13.1747 14.1424 10.5017 15.972 6.96307 16H6.78234C5.47764 16.0347 4.18306 15.7662 3.00433 15.2162C1.8256 14.6662 0.796131 13.8504 0 12.8355L2.05468 10.9685C2.62194 11.6631 3.34849 12.2163 4.17505 12.5829C5.0016 12.9495 5.90477 13.1192 6.81088 13.0782H6.94405C8.84653 13.0782 10.007 12.3407 10.007 11.1459C10.007 9.78296 8.70384 9.40023 7.0582 9.19487L5.77402 9.07351C2.72055 8.71879 0.361471 7.52392 0.361471 4.77013C0.361471 1.86698 2.96787 0.0466744 6.27818 0H6.45892Z" fill="black" fill-opacity="0.85"/>
<path d="M22.8297 15.8693H19.6811V3.07118H15.2959V0.158691H27.2149V3.07118H22.8297V15.8693Z" fill="black" fill-opacity="0.85"/>
<path d="M30.6871 15.8693H27.1865L33.7691 0.158691H35.6145L42.102 15.8693H38.6014L37.4599 13.0035H31.8286L30.6871 15.8693ZM32.9225 10.063H36.366L34.6538 5.78763L32.9225 10.063Z" fill="black" fill-opacity="0.85"/>
<path d="M58.0256 15.8693V5.82497L53.2124 11.6966L48.4562 5.82497V15.8693H45.2505V0.158691H47.153L53.2219 7.6266L59.3193 0.158691H61.2218V15.8693H58.0256Z" fill="black" fill-opacity="0.85"/>
<path d="M71.2098 0.158691C75.6807 0.158691 78.3251 2.75379 78.3251 6.1797C78.3251 9.6056 75.6807 12.2287 71.2098 12.2287H69.1076V15.8693H65.959V0.158691H71.2098ZM71.4572 9.33489C73.4928 9.33489 75.3382 8.4014 75.3382 6.19837C75.3382 3.99533 73.4928 3.08985 71.4572 3.08985H69.1076V9.33489H71.4572Z" fill="black" fill-opacity="0.85"/>
<path d="M106.254 0C108.565 0.0845653 110.762 1.00952 112.418 2.5951L110.363 4.46208C109.184 3.54999 107.751 3.00973 106.254 2.91249H106.063C105.017 2.91249 103.305 3.29522 103.305 4.65811C103.305 5.71295 104.541 6.03034 105.978 6.2077L107.252 6.33839C110.496 6.72112 112.96 7.90665 112.96 11.1552C112.96 14.1424 110.296 15.972 106.758 16H106.539C105.234 16.0347 103.94 15.7662 102.761 15.2162C101.582 14.6662 100.553 13.8504 99.7566 12.8355L101.811 10.9685C102.378 11.6558 103.101 12.2036 103.922 12.5682C104.742 12.9329 105.639 13.1043 106.539 13.0688H106.682C108.527 13.0688 109.735 12.3314 109.735 11.1365C109.735 9.77363 108.432 9.3909 106.796 9.18553L105.588 9.07351C102.525 8.71879 100.175 7.52392 100.175 4.77013C100.156 1.86698 102.734 0.0466744 106.063 0H106.254Z" fill="black" fill-opacity="0.85"/>
<path d="M122.615 15.8693H119.466V3.07118H115.1V0.158691H127.019V3.07118H122.615V15.8693Z" fill="black" fill-opacity="0.85"/>
<path d="M89.1026 -8.62835e-06C87.4902 -8.62835e-06 85.9141 0.469183 84.5735 1.34823C83.2329 2.22729 82.188 3.47672 81.571 4.93852C80.954 6.40033 80.7925 8.00887 81.1071 9.56071C81.4216 11.1126 82.198 12.538 83.3381 13.6568C84.4782 14.7757 85.9308 15.5376 87.5122 15.8463C89.0935 16.155 90.7326 15.9965 92.2222 15.391C93.7119 14.7855 94.985 13.7601 95.8808 12.4446C96.7766 11.129 97.2547 9.58224 97.2547 7.99999C97.2572 6.94873 97.048 5.90733 96.6393 4.93561C96.2305 3.9639 95.6301 3.08101 94.8726 2.33765C94.1151 1.59429 93.2154 1.00511 92.2252 0.603941C91.235 0.202775 90.1738 -0.00247062 89.1026 -8.62835e-06ZM92.527 4.21936L89.1121 6.77712L85.7066 4.21936C86.6239 3.36932 87.841 2.90093 89.1026 2.91248C90.3727 2.90047 91.5989 3.36841 92.527 4.21936ZM89.1026 13.0688C88.4293 13.0761 87.7617 12.9479 87.1409 12.6921C86.5201 12.4364 85.9593 12.0584 85.4931 11.5817C85.0269 11.105 84.6652 10.5395 84.4303 9.9203C84.1955 9.30106 84.0924 8.64116 84.1276 7.98132C84.1334 7.49218 84.2037 7.00583 84.3369 6.53441L86.8862 8.44807L89.1121 10.119L91.319 8.44807L93.8968 6.53441C94.0316 7.01186 94.1019 7.50459 94.1061 7.99999C94.1373 8.66036 94.0305 9.32001 93.7922 9.93834C93.5539 10.5567 93.1892 11.1206 92.7205 11.5954C92.2518 12.0703 91.689 12.4459 91.0668 12.6993C90.4446 12.9527 89.7761 13.0785 89.1026 13.0688Z" fill="black" fill-opacity="0.85"/>
</g>
<defs>
<clipPath id="clip0_153977_154275">
<rect width="127" height="16" fill="white"/>
</clipPath>
</defs>
</svg>
